<mxfile host="app.diagrams.net" modified="2021-11-20T05:21:19.969Z" agent="5.0 (Macintosh; Intel Mac OS X 10_15_7) AppleWebKit/605.1.15 (KHTML, like Gecko) Version/15.1 Safari/605.1.15" etag="VvQ8Lcdq7C9jPpArUBKH" version="15.7.4" type="github">
  <diagram id="sfUgYA5EaEDTMVYTiUs7" name="Page-1">
    <mxGraphModel dx="1298" dy="786" grid="1" gridSize="10" guides="1" tooltips="1" connect="1" arrows="1" fold="1" page="1" pageScale="1" pageWidth="827" pageHeight="1169" math="0" shadow="0">
      <root>
        <mxCell id="0" />
        <mxCell id="1" parent="0" />
        <mxCell id="S9nJKF2qRP_PtctfIXvr-5" value="&lt;h1&gt;Painting&lt;/h1&gt;" style="rounded=0;whiteSpace=wrap;html=1;" vertex="1" parent="1">
          <mxGeometry x="170" y="245" width="120" height="70" as="geometry" />
        </mxCell>
        <mxCell id="S9nJKF2qRP_PtctfIXvr-6" value="&lt;font style=&quot;font-size: 22px&quot;&gt;&lt;b&gt;Museum&lt;/b&gt;&lt;/font&gt;" style="rounded=0;whiteSpace=wrap;html=1;fontSize=12;" vertex="1" parent="1">
          <mxGeometry x="370" y="80" width="120" height="60" as="geometry" />
        </mxCell>
        <mxCell id="S9nJKF2qRP_PtctfIXvr-7" value="&lt;b&gt;Reservation&lt;/b&gt;" style="rounded=0;whiteSpace=wrap;html=1;fontSize=22;" vertex="1" parent="1">
          <mxGeometry x="590" y="245" width="160" height="60" as="geometry" />
        </mxCell>
        <mxCell id="S9nJKF2qRP_PtctfIXvr-8" value="&lt;b&gt;Artist&lt;/b&gt;" style="rounded=0;whiteSpace=wrap;html=1;fontSize=22;" vertex="1" parent="1">
          <mxGeometry x="170" y="450" width="120" height="60" as="geometry" />
        </mxCell>
        <mxCell id="S9nJKF2qRP_PtctfIXvr-18" value="" style="fontSize=12;html=1;endArrow=ERzeroToMany;startArrow=ERmandOne;rounded=0;edgeStyle=orthogonalEdgeStyle;" edge="1" parent="1">
          <mxGeometry width="100" height="100" relative="1" as="geometry">
            <mxPoint x="350" y="115" as="sourcePoint" />
            <mxPoint x="230" y="245" as="targetPoint" />
            <Array as="points">
              <mxPoint x="370" y="115" />
              <mxPoint x="230" y="115" />
            </Array>
          </mxGeometry>
        </mxCell>
        <mxCell id="S9nJKF2qRP_PtctfIXvr-19" value="" style="fontSize=12;html=1;endArrow=ERzeroToMany;startArrow=ERmandOne;rounded=0;exitX=0.5;exitY=0;exitDx=0;exitDy=0;" edge="1" parent="1" source="S9nJKF2qRP_PtctfIXvr-8">
          <mxGeometry width="100" height="100" relative="1" as="geometry">
            <mxPoint x="229.53999999999996" y="436.02" as="sourcePoint" />
            <mxPoint x="229.5" y="315" as="targetPoint" />
          </mxGeometry>
        </mxCell>
        <mxCell id="S9nJKF2qRP_PtctfIXvr-22" value="" style="fontSize=12;html=1;endArrow=ERoneToMany;startArrow=ERzeroToMany;rounded=0;exitX=0;exitY=0.617;exitDx=0;exitDy=0;exitPerimeter=0;entryX=1;entryY=0.5;entryDx=0;entryDy=0;" edge="1" parent="1" source="S9nJKF2qRP_PtctfIXvr-7" target="S9nJKF2qRP_PtctfIXvr-5">
          <mxGeometry width="100" height="100" relative="1" as="geometry">
            <mxPoint x="580" y="280" as="sourcePoint" />
            <mxPoint x="315" y="279.5" as="targetPoint" />
          </mxGeometry>
        </mxCell>
        <mxCell id="S9nJKF2qRP_PtctfIXvr-24" value="" style="edgeStyle=orthogonalEdgeStyle;fontSize=12;html=1;endArrow=ERzeroToMany;startArrow=ERmandOne;rounded=0;" edge="1" parent="1">
          <mxGeometry width="100" height="100" relative="1" as="geometry">
            <mxPoint x="490" y="115" as="sourcePoint" />
            <mxPoint x="650" y="245" as="targetPoint" />
            <Array as="points">
              <mxPoint x="650" y="115" />
            </Array>
          </mxGeometry>
        </mxCell>
        <mxCell id="S9nJKF2qRP_PtctfIXvr-25" value="&lt;font style=&quot;font-size: 22px&quot;&gt;&lt;b&gt;Museum&lt;/b&gt;&lt;/font&gt;" style="rounded=0;whiteSpace=wrap;html=1;fontSize=12;" vertex="1" parent="1">
          <mxGeometry x="385" y="570" width="120" height="60" as="geometry" />
        </mxCell>
        <mxCell id="S9nJKF2qRP_PtctfIXvr-26" value="&lt;font style=&quot;font-size: 22px&quot;&gt;&lt;b&gt;Painting&lt;/b&gt;&lt;/font&gt;" style="rounded=0;whiteSpace=wrap;html=1;fontSize=12;" vertex="1" parent="1">
          <mxGeometry x="160" y="680" width="120" height="60" as="geometry" />
        </mxCell>
        <mxCell id="S9nJKF2qRP_PtctfIXvr-27" value="&lt;font style=&quot;font-size: 22px&quot;&gt;&lt;b&gt;Reservation Detail&lt;/b&gt;&lt;/font&gt;" style="rounded=0;whiteSpace=wrap;html=1;fontSize=12;" vertex="1" parent="1">
          <mxGeometry x="355" y="680" width="150" height="60" as="geometry" />
        </mxCell>
        <mxCell id="S9nJKF2qRP_PtctfIXvr-28" value="&lt;font style=&quot;font-size: 22px&quot;&gt;&lt;b&gt;Reservation&lt;/b&gt;&lt;/font&gt;" style="rounded=0;whiteSpace=wrap;html=1;fontSize=12;" vertex="1" parent="1">
          <mxGeometry x="610" y="680" width="150" height="60" as="geometry" />
        </mxCell>
        <mxCell id="S9nJKF2qRP_PtctfIXvr-29" value="&lt;font style=&quot;font-size: 22px&quot;&gt;&lt;b&gt;Artist&lt;/b&gt;&lt;/font&gt;" style="rounded=0;whiteSpace=wrap;html=1;fontSize=12;" vertex="1" parent="1">
          <mxGeometry x="150" y="850" width="120" height="60" as="geometry" />
        </mxCell>
        <mxCell id="S9nJKF2qRP_PtctfIXvr-31" value="" style="rounded=0;whiteSpace=wrap;html=1;fontSize=17;" vertex="1" parent="1">
          <mxGeometry x="360" y="960" width="120" height="60" as="geometry" />
        </mxCell>
        <mxCell id="S9nJKF2qRP_PtctfIXvr-32" value="" style="fontSize=12;html=1;endArrow=ERzeroToMany;startArrow=ERmandOne;rounded=0;exitX=1;exitY=0.5;exitDx=0;exitDy=0;" edge="1" parent="1" source="S9nJKF2qRP_PtctfIXvr-26">
          <mxGeometry width="100" height="100" relative="1" as="geometry">
            <mxPoint x="290" y="710" as="sourcePoint" />
            <mxPoint x="355" y="709.5" as="targetPoint" />
          </mxGeometry>
        </mxCell>
      </root>
    </mxGraphModel>
  </diagram>
</mxfile>
